<svg xmlns="http://www.w3.org/2000/svg" x="0px" y="0px" width="48" height="48" viewBox="0 0 172 172" style=" fill:#000000;">
	<g fill="none" fill-rule="nonzero" stroke="none" stroke-width="1" stroke-linecap="butt" stroke-linejoin="miter" stroke-miterlimit="10" stroke-dasharray="" stroke-dashoffset="0" font-family="none" font-weight="none" font-size="none" text-anchor="none" style="mix-blend-mode: normal">
		<path d="M0,172v-172h172v172z" fill="none">
		</path>
		<g fill="#ffffff">
			<path d="M86,154.8c37.9948,0 68.8,-30.8052 68.8,-68.8c0,-37.9948 -30.8052,-68.8 -68.8,-68.8c-37.9948,0 -68.8,30.8052 -68.8,68.8c0,37.9948 30.8052,68.8 68.8,68.8zM56.46187,117.70533c-1.08933,1.7372 -2.95267,2.69467 -4.8676,2.69467c-1.03773,0 -2.08693,-0.28093 -3.03293,-0.87147c-2.68893,-1.67987 -3.50307,-5.21733 -1.8232,-7.90053l1.548,-2.4768c0.99187,-0.12613 2.064,-0.21787 3.31387,-0.21787c3.46293,0 6.33533,1.09507 8.74907,2.55133zM51.6,103.2c-3.1648,0 -5.73333,-2.56853 -5.73333,-5.73333c0,-3.1648 2.56853,-5.73333 5.73333,-5.73333h7.57373l20.06667,-32.10667l-6.70227,-10.72133c-1.67413,-2.6832 -0.86,-6.22067 1.8232,-7.90053c2.6832,-1.67413 6.22067,-0.85427 7.90053,1.8232l3.73813,5.97987l3.73813,-5.97987c1.67987,-2.68893 5.21733,-3.5088 7.90053,-1.8232c2.68893,1.67987 3.50307,5.21733 1.8232,7.90053l-26.76893,42.828h18.27213c1.462,1.0492 3.0788,2.67747 4.78733,5.39507c1.26707,2.0124 1.88627,4.06493 2.23027,6.0716zM125.26187,111.628c1.67413,2.6832 0.86,6.22067 -1.8232,7.90053c-0.946,0.59053 -1.9952,0.87147 -3.03293,0.87147c-1.9092,0 -3.77827,-0.95747 -4.8676,-2.69467l-25.91467,-41.46347c0.45867,-1.14093 1.0492,-2.36787 1.9264,-3.7668c1.58813,-2.5284 3.62347,-4.28853 5.77347,-5.54987l15.50293,24.80813h7.57373c3.1648,0 5.73333,2.56853 5.73333,5.73333c0,3.1648 -2.56853,5.73333 -5.73333,5.73333h-0.40707z">
			</path>
		</g>
	</g>
</svg>
