<svg xmlns="http://www.w3.org/2000/svg" x="0px" y="0px" width="48" height="48" viewBox="0 0 172 172" style=" fill:#000000;">
	<g fill="none" fill-rule="nonzero" stroke="none" stroke-width="1" stroke-linecap="butt" stroke-linejoin="miter" stroke-miterlimit="10" stroke-dasharray="" stroke-dashoffset="0" font-family="none" font-weight="none" font-size="none" text-anchor="none" style="mix-blend-mode: normal">
		<path d="M0,172v-172h172v172z" fill="none">
		</path>
		<g fill="#ed4c5c">
			<path d="M44.79167,14.33333c-8.84188,0 -16.125,7.28312 -16.125,16.125v48.55697c-4.04961,0.84881 -7.16667,4.50325 -7.16667,8.77637v39.41667c0,4.27312 3.11706,7.92756 7.16667,8.77637v5.55697c0,8.84188 7.28312,16.125 16.125,16.125h82.41667c8.84188,0 16.125,-7.28312 16.125,-16.125v-5.55697c4.0496,-0.84881 7.16667,-4.50325 7.16667,-8.77637v-39.41667c0,-4.27312 -3.11706,-7.92756 -7.16667,-8.77637v-12.72363c-0.00027,-1.42544 -0.5667,-2.79242 -1.57471,-3.80029l-0.05599,-0.05599l-46.52734,-46.52734c-1.00788,-1.00801 -2.37485,-1.57443 -3.80029,-1.57471zM44.79167,25.08333h41.20833v30.45833c0,8.84188 7.28312,16.125 16.125,16.125h30.45833v7.16667h-93.16667v-48.375c0,-3.03329 2.34171,-5.375 5.375,-5.375zM96.75,32.68392l28.23275,28.23275h-22.85775c-3.03329,0 -5.375,-2.34171 -5.375,-5.375zM32.25,89.58333h107.5v35.83333h-107.5zM61.96647,93.16667c-6.50375,0 -11.79981,6.4285 -11.79981,14.33333c0,7.90483 5.29606,14.33333 11.79981,14.33333c5.1815,0 8.28019,-3.51363 9.29427,-5.59196c0.87075,-1.77733 0.13622,-3.92336 -1.6447,-4.79411c-1.77733,-0.86717 -3.91994,-0.13264 -4.78711,1.6447c-0.00717,0.01433 -0.85938,1.57471 -2.86247,1.57471c-2.46533,0 -4.63314,-3.35042 -4.63314,-7.16667c0,-3.81625 2.16781,-7.16667 4.63314,-7.16667c1.87767,0 2.72204,1.34045 2.89046,1.6307c0.88508,1.73433 3.0067,2.4487 4.76612,1.58871c1.77733,-0.86717 2.51544,-3.01678 1.64469,-4.79411c-1.01408,-2.07833 -4.11619,-5.59196 -9.30127,-5.59196zM84.65625,93.16667c-4.93783,0 -8.95833,4.0205 -8.95833,8.95833c0,4.93783 4.0205,8.95833 8.95833,8.95833h3.13542c0.989,0 1.79167,0.80267 1.79167,1.79167c0,0.989 -0.80267,1.79167 -1.79167,1.79167h-3.91227c-1.2255,0 -2.23303,-0.91028 -2.51253,-1.18978c-1.40108,-1.40108 -3.66597,-1.40108 -5.06706,0c-1.40108,1.40108 -1.40108,3.66597 0,5.06706c0.989,0.989 3.70601,3.28939 7.57959,3.28939h3.91227c4.93783,0 8.95833,-4.0205 8.95833,-8.95833c0,-4.93783 -4.0205,-8.95833 -8.95833,-8.95833h-3.13542c-0.989,0 -1.79167,-0.80267 -1.79167,-1.79167c0,-0.989 0.80267,-1.79167 1.79167,-1.79167h3.13542c1.08933,0 1.94206,0.74544 1.94564,0.74186c1.40108,1.3975 3.66597,1.40108 5.06706,0c1.40108,-1.40108 1.40108,-3.66597 0,-5.06706c-0.29025,-0.29025 -2.95994,-2.84147 -7.01269,-2.84147zM103.93766,93.16667c-0.46589,-0.00247 -0.94197,0.08214 -1.39974,0.27295c-1.8275,0.76325 -2.69131,2.86163 -1.93164,4.68913l8.95833,21.5c0.55542,1.333 1.86272,2.20459 3.31038,2.20459c1.44767,0 2.75138,-0.87159 3.31038,-2.20459l8.95833,-21.5c0.75967,-1.8275 -0.10414,-3.92946 -1.93164,-4.68913c-1.83467,-0.76325 -3.93305,0.10772 -4.68913,1.93164l-5.64795,13.56348l-5.64795,-13.56348c-0.56975,-1.36794 -1.89172,-2.1972 -3.28939,-2.20459zM39.41667,136.16667h93.16667v5.375c0,3.03329 -2.34171,5.375 -5.375,5.375h-82.41667c-3.03329,0 -5.375,-2.34171 -5.375,-5.375z">
			</path>
		</g>
	</g>
</svg>
