<svg xmlns="http://www.w3.org/2000/svg" x="0px" y="0px"
width="48" height="48"
viewBox="0 0 172 172"
style=" fill:#000000;"><g fill="none" fill-rule="nonzero" stroke="none" stroke-width="1" stroke-linecap="butt" stroke-linejoin="miter" stroke-miterlimit="10" stroke-dasharray="" stroke-dashoffset="0" font-family="none" font-weight="none" font-size="none" text-anchor="none" style="mix-blend-mode: normal"><path d="M0,172v-172h172v172z" fill="none"></path><g fill="#ed4c5c"><path d="M86,35.83333c-22.50333,0 -41.02211,17.37917 -42.84603,39.41667h-1.94564c-16.79508,0 -30.45833,13.66325 -30.45833,30.45833c0,16.79508 13.66325,30.45833 30.45833,30.45833h18.39958c-1.46558,-2.08908 -2.27458,-4.56158 -2.27458,-7.16667c0,-1.23983 0.23689,-2.4295 0.58089,-3.58333h-16.70589c-10.86825,0 -19.70833,-8.84008 -19.70833,-19.70833c0,-10.86825 8.84008,-19.70833 19.70833,-19.70833h7.16667c2.97058,0 5.375,-2.40442 5.375,-5.375v-1.79167c0,-17.7805 14.4695,-32.25 32.25,-32.25c17.7805,0 32.25,14.4695 32.25,32.25v1.79167c0,2.97058 2.40442,5.375 5.375,5.375h7.16667c10.86825,0 19.70833,8.84008 19.70833,19.70833c0,10.86825 -8.84008,19.70833 -19.70833,19.70833h-16.70589c0.344,1.15383 0.58089,2.3435 0.58089,3.58333c0,2.60508 -0.80899,5.07758 -2.27458,7.16667h18.39958c16.79508,0 30.45833,-13.66325 30.45833,-30.45833c0,-16.79508 -13.66325,-30.45833 -30.45833,-30.45833h-1.94564c-1.82392,-22.0375 -20.34269,-39.41667 -42.84603,-39.41667zM85.91601,85.92302c-2.96578,0.04633 -5.33356,2.48614 -5.29101,5.45198v40.77441l-6.94971,-6.94971c-1.34815,-1.40412 -3.35005,-1.96971 -5.23364,-1.47866c-1.88359,0.49105 -3.35456,1.96202 -3.84561,3.84561c-0.49105,1.88359 0.07455,3.88549 1.47866,5.23364l15.66309,15.66309c1.02108,1.33141 2.60528,2.10968 4.28314,2.10419c1.67786,-0.00549 3.25693,-0.79412 4.26927,-2.13218l15.63509,-15.63509c1.40412,-1.34815 1.96971,-3.35005 1.47866,-5.23364c-0.49105,-1.88359 -1.96202,-3.35456 -3.84561,-3.84561c-1.88359,-0.49105 -3.88549,0.07455 -5.23364,1.47866l-6.94971,6.94971v-40.77441c0.02085,-1.45347 -0.54782,-2.85342 -1.57635,-3.88062c-1.02852,-1.0272 -2.4292,-1.59408 -3.88264,-1.57136z"></path></g></g></svg>