<svg xmlns="http://www.w3.org/2000/svg" x="0px" y="0px" width="48" height="48" viewBox="0 0 172 172" style=" fill:#000000;">
	<g fill="none" fill-rule="nonzero" stroke="none" stroke-width="1" stroke-linecap="butt" stroke-linejoin="miter" stroke-miterlimit="10" stroke-dasharray="" stroke-dashoffset="0" font-family="none" font-weight="none" font-size="none" text-anchor="none" style="mix-blend-mode: normal">
		<path d="M0,172v-172h172v172z" fill="none">
		</path>
		<g fill="#ffffff">
			<path d="M38.81478,16.6849l53.88998,56.11556c1.41183,1.46917 3.7532,1.46917 5.16504,0l10.91797,-11.35189c1.61967,-1.68417 1.25147,-4.4243 -0.78386,-5.57096c-28.18649,-15.94583 -63.12612,-35.73121 -69.18912,-39.19271zM22.50781,20.4082c-0.60917,1.419 -1.00781,2.97596 -1.00781,4.70313v122.46322c0,1.41183 0.31802,2.71493 0.78385,3.93327l60.67871,-63.18424c1.333,-1.38317 1.333,-3.56474 0,-4.95508zM125.01074,66.34766c-0.7731,0.1084 -1.50544,0.47255 -2.07161,1.0638l-15.32715,15.95703c-1.333,1.38317 -1.333,3.56475 0,4.95508l15.18718,15.80306c1.13233,1.1825 2.94819,1.43255 4.36719,0.62989c10.62817,-6.02 17.79069,-10.06413 17.79068,-10.06413c3.57617,-2.1715 5.59314,-5.51363 5.54297,-9.1543c-0.05733,-3.55467 -2.1313,-6.8342 -5.55697,-8.77636c-0.43717,-0.24367 -7.43138,-4.20382 -17.63672,-9.98015c-0.71308,-0.40133 -1.52247,-0.54232 -2.29558,-0.43392zM95.29427,97.78581c-0.93883,0 -1.8836,0.37121 -2.58952,1.1058l-53.47005,55.66764c9.18767,-5.2245 41.9549,-23.7706 68.62923,-38.87077c2.03533,-1.15383 2.40352,-3.89363 0.78385,-5.58496l-10.77799,-11.21191c-0.70592,-0.73458 -1.63669,-1.1058 -2.57552,-1.1058z">
			</path>
		</g>
	</g>
</svg>
