<?xml version="1.0" encoding="UTF-8"?>
<svg xmlns="http://www.w3.org/2000/svg" xmlns:xlink="http://www.w3.org/1999/xlink" width="48pt" height="48pt" viewBox="0 0 48 48" version="1.1">
	<defs>
		<linearGradient id="linear0" gradientUnits="userSpaceOnUse" x1="35.3245" y1="35.3245" x2="136.6755" y2="136.6755" gradientTransform="matrix(0.27907,0,0,0.27907,0,0)">
			<stop offset="0" style="stop-color:rgb(95.686275%,30.980392%,35.294118%);stop-opacity:1;" />
			<stop offset="0.443" style="stop-color:rgb(92.941176%,29.803922%,36.078431%);stop-opacity:1;" />
			<stop offset="1" style="stop-color:rgb(89.803922%,12.54902%,18.823529%);stop-opacity:1;" />
		</linearGradient>
		<filter id="alpha" filterUnits="objectBoundingBox" x="0%" y="0%" width="100%" height="100%">
			<feColorMatrix type="matrix" in="SourceGraphic" values="0 0 0 0 1 0 0 0 0 1 0 0 0 0 1 0 0 0 1 0" />
		</filter>
		<mask id="mask0">
			<g filter="url(#alpha)">
				<rect x="0" y="0" width="48" height="48" style="fill:rgb(0%,0%,0%);fill-opacity:0.0509804;stroke:none;" />
			</g>
		</mask>
		<clipPath id="clip1">
			<rect width="48" height="48" />
		</clipPath>
		<g id="surface7300599" clip-path="url(#clip1)">
			<path style=" stroke:none;fill-rule:nonzero;fill:rgb(0%,0%,0%);fill-opacity:1;" d="M 33.351562 22.441406 L 21.914062 14.816406 C 21.339844 14.429688 20.601562 14.394531 19.992188 14.722656 C 19.378906 15.050781 19 15.683594 19 16.375 L 19 31.625 C 19 32.316406 19.378906 32.949219 19.992188 33.277344 C 20.269531 33.425781 20.570312 33.5 20.875 33.5 C 21.238281 33.5 21.601562 33.394531 21.914062 33.183594 L 33.351562 25.5625 C 33.875 25.210938 34.1875 24.628906 34.1875 24 C 34.1875 23.371094 33.875 22.789062 33.351562 22.441406 Z M 33.351562 22.441406 " />
		</g>
		<mask id="mask1">
			<g filter="url(#alpha)">
				<rect x="0" y="0" width="48" height="48" style="fill:rgb(0%,0%,0%);fill-opacity:0.0705882;stroke:none;" />
			</g>
		</mask>
		<clipPath id="clip2">
			<rect width="48" height="48" />
		</clipPath>
		<g id="surface7300602" clip-path="url(#clip2)">
			<path style=" stroke:none;fill-rule:nonzero;fill:rgb(0%,0%,0%);fill-opacity:1;" d="M 21.679688 15.238281 L 32.472656 22.429688 C 33.160156 22.925781 33.625 23.367188 33.625 23.945312 C 33.625 24.519531 33.398438 24.921875 32.910156 25.277344 C 32.539062 25.546875 21.863281 32.640625 21.863281 32.640625 C 20.964844 33.246094 19.5 33.117188 19.5 31.144531 L 19.5 16.742188 C 19.5 14.738281 21.085938 14.839844 21.679688 15.238281 Z M 21.679688 15.238281 " />
		</g>
	</defs>
	<g id="surface7300594">
		<path style=" stroke:none;fill-rule:nonzero;fill:url(#linear0);" d="M 44 24 C 44 35.046875 35.046875 44 24 44 C 12.953125 44 4 35.046875 4 24 C 4 12.953125 12.953125 4 24 4 C 35.046875 4 44 12.953125 44 24 Z M 44 24 " />
		<use xlink:href="#surface7300599" mask="url(#mask0)" />
		<use xlink:href="#surface7300602" mask="url(#mask1)" />
		<path style=" stroke:none;fill-rule:nonzero;fill:rgb(100%,100%,100%);fill-opacity:1;" d="M 20 31.566406 L 20 16.433594 C 20 15.691406 20.828125 15.246094 21.445312 15.660156 L 32.800781 23.226562 C 33.351562 23.59375 33.351562 24.40625 32.800781 24.777344 L 21.445312 32.34375 C 20.828125 32.753906 20 32.3125 20 31.566406 Z M 20 31.566406 " />
	</g>
</svg>
